<?xml version="1.0" encoding="utf-8"?>
<!-- Generator: Adobe Illustrator 25.2.1, SVG Export Plug-In . SVG Version: 6.00 Build 0)  -->
<svg version="1.1" id="Layer_6" xmlns="http://www.w3.org/2000/svg" xmlns:xlink="http://www.w3.org/1999/xlink" x="0px" y="0px"
	 viewBox="0 0 460.1 189.1" style="enable-background:new 0 0 460.1 189.1;" xml:space="preserve">
<style type="text/css">
	.st0{fill:#FFFFFF;}
</style>
<path class="st0" d="M224.5,79.8c-0.5-1-6.5-6.3-0.4-6.9c4.1-0.5,2.1,5.6,0.7,7.4L224.5,79.8z"/>
<path class="st0" d="M236.8,57.2c0.3-0.1,0.6-0.2,0.7-0.4C238,55.7,237.2,56.7,236.8,57.2z"/>
<path class="st0" d="M236.6,57.4l0.2-0.2l-0.2,0.1C236.6,57.3,236.6,57.4,236.6,57.4z"/>
<path class="st0" d="M225.3,67.8"/>
<path class="st0" d="M232.2,79.5c-0.6-1-6.6-6.2-0.5-6.8c4-0.5,2.2,5.6,0.8,7.4L232.2,79.5z"/>
<path class="st0" d="M110.9,116.9v6.8h-3.3v15.4h3.3v6.8H97.6v-6.6h2.1V128c-2,5.9-3.8,11.8-5.2,17.9h-9.4c-1.4-6.1-3.1-12-5.2-17.9
	v11.3h2v6.6H68.9v-6.8h3.3v-15.4h-3.3v-6.8h14.4c3.5,10.9,5.7,18.5,6.6,22.8c0.9-4.3,3.1-11.9,6.6-22.8H110.9z"/>
<path class="st0" d="M143.9,139.1h2.6v6.8H133v-6.8h2.5l-1-3.3h-8.1l-1.2,3.3h2.4v6.8h-13.5v-6.8h2.9l7.3-15.3h-2.5v-6.8h13.4
	L143.9,139.1z M132.7,130.6c-0.9-2.1-1.6-4.3-2.2-6.5c-0.4,1.3-1.1,3.4-2.2,6.5H132.7z"/>
<path class="st0" d="M170.6,123.7v12.2c0,1.4-0.2,2.8-0.7,4.1c-0.5,1.2-1.2,2.3-2.2,3.2c-1.1,0.9-2.3,1.6-3.7,2.1
	c-1.6,0.6-3.4,0.9-5.1,0.9c-1.5,0-2.9-0.2-4.3-0.7c-3.2-1-5.7-3.5-6.6-6.8l6.6-1.8c0.1,0.7,0.5,1.4,1.2,1.7c0.8,0.5,1.7,0.8,2.6,0.8
	h0.3c0.8,0,1.6-0.2,2.3-0.6c0.7-0.5,1.2-1.2,1.2-2.1v-13.1h-3.1v-6.8h14.4v6.8L170.6,123.7z"/>
<path class="st0" d="M196,118.3l0.4-1.4h4.1v8.6h-6c-0.1-1-0.8-1.9-1.7-2.3c-1.1-0.3-2.3-0.5-3.4-0.4c-1.2-0.1-2.4,0.1-3.4,0.7
	c-0.5,0.2-0.8,0.7-0.8,1.2v0.1c0,0.7,0.5,1.3,1.1,1.6c1.6,0.6,3.3,0.9,5,1c2.3,0.2,4.6,0.8,6.8,1.7c2,0.9,3.5,2.7,4.1,4.8
	c0.2,0.8,0.4,1.7,0.4,2.5c0,1.3-0.3,2.6-0.8,3.8c-0.4,0.9-0.9,1.7-1.4,2.4c-0.8,1-1.7,1.7-2.8,2.3c-1.8,0.9-4.3,1.4-7.7,1.4
	c-2.2,0.1-4.5-0.5-6.4-1.7c-0.5-0.3-1-0.7-1.4-1.1l-0.7,2.4h-4.1v-8.5h7.4c0.3,1.2,1,2.2,2,2.8c1,0.5,2,0.7,3.1,0.7h0.2
	c1.2,0.1,2.4-0.2,3.5-0.7c0.9-0.5,1.4-1.4,1.4-2.4c0-0.9-0.4-1.7-1.2-2.1c-0.5-0.2-1-0.4-1.5-0.6c-1-0.2-2-0.4-3.1-0.6
	c-1.9-0.4-3.4-0.7-4.5-1c-0.9-0.2-1.7-0.5-2.6-0.9c-1.7-0.7-3-2.1-3.6-3.8c-0.4-1-0.6-2.1-0.6-3.1c0-0.7,0.1-1.4,0.2-2.1
	c0.3-1.7,1.2-3.4,2.5-4.6c0.7-0.6,1.4-1.1,2.3-1.5c2.2-0.8,4.5-1.1,6.8-1c1.9-0.1,3.8,0.3,5.5,1.1
	C195.3,117.8,195.7,118.1,196,118.3z M196.4,127.6L196.4,127.6L196.4,127.6z"/>
<path class="st0" d="M238.4,139.1h2.2v6.8h-14.4v-6.8h1.4l-4.6-5.7l-5.1,3.7v2h2.4v6.8h-14.4v-6.8h3.3v-15.4h-3.3v-6.8h14.4v6.8
	h-2.4v5.1l7.2-5.1h-1.4v-6.8h14.4v6.8h-2.9l-6.4,4.4L238.4,139.1z"/>
<path class="st0" d="M247.4,123.7h-3.3v-6.8h23.3v8.2h-4.8v-1.7h-6.8v4.3h8.3v6.1h-8.3v5.8h6.8v-1.9h4.8v8.2h-23.2v-6.8h3.3V123.7z"
	/>
<path class="st0" d="M296.3,116.9v6.8h-3v15.4h3v6.8h-14.4v-6.8h3v-15.4h-3v-6.8H296.3z"/>
<path class="st0" d="M329.9,136.7v9.1h-6.4v-3.2c-1.6,2.5-4.3,3.7-8.3,3.7h-0.1c-4,0.1-7.9-1.5-10.8-4.4c-5.8-5.6-6-14.8-0.4-20.6
	c0.1-0.1,0.2-0.2,0.4-0.4c2.9-2.8,6.7-4.4,10.8-4.3c2.5,0,5,0.6,7.2,1.7c0.4,0.2,0.8,0.4,1.3,0.6c0.4,0.2,0.8,0.5,1.2,0.7l0.7-2.8
	h4.1v9.9h-8.3c-0.2-0.3-0.5-0.7-0.8-1c-1.3-1.5-3.1-2.4-5.1-2.3c-1.9,0-3.8,0.8-5,2.3c-2.6,3.3-2.6,8,0,11.4c1.2,1.5,3.1,2.4,5,2.4
	c2.7,0,4.4-0.9,5.3-2.8H317v-5.8h15.2v5.8L329.9,136.7z"/>
<path class="st0" d="M339,123.7h-3.3v-6.8h20.7c3.2,0,5.5,0.6,6.8,1.9c2.6,2.4,2.7,6.4,0.3,9c-0.1,0.1-0.2,0.2-0.3,0.3
	c-1.3,1.3-3,2-4.8,1.9c1.5,0,3.1,1.1,4.8,3.2c0.8,1.1,1.3,3,1.4,5.8h3.1v6.8h-14.4v-6.8h2.3v-1.3c0-2.7-0.6-4-1.9-4h-6.3v5.3h2.8
	v6.8h-14.4v-6.8h3.3L339,123.7z M347.4,127.7h6.2c0.7,0,1.3-0.3,1.7-0.9c0.3-0.4,0.4-0.9,0.4-1.4c0-1.1-0.9-2-2-2c0,0-0.1,0-0.1,0
	h-6.2V127.7z"/>
<path class="st0" d="M373.3,123.7H370v-6.8h23.3v8.2h-4.8v-1.7h-6.8v4.3h8.3v6.1h-8.3v5.8h6.8v-1.9h4.8v8.2H370v-6.8h3.3V123.7z"/>
<path class="st0" d="M400.7,116.9v4.8h37.1c0.8,0,1.5-0.4,1.9-1.1l2.3-3.7H400.7z"/>
<path class="st0" d="M400.7,129v4.8h30.1c0.8,0,1.5-0.4,1.9-1.1l2.1-3.6H400.7z"/>
<path class="st0" d="M400.7,141v4.8H424c0.8,0,1.5-0.4,1.9-1.1l2.1-3.7H400.7z"/>
<path class="st0" d="M61.1,116.9v4.8H24c-0.8,0-1.5-0.4-1.9-1.1l-2.2-3.7H61.1z"/>
<path class="st0" d="M61.1,129v4.8H30.9c-0.8,0-1.6-0.4-2-1.1l-2.1-3.6H61.1z"/>
<path class="st0" d="M61.1,141v4.8H37.9c-0.8,0-1.6-0.4-2-1.1l-2.1-3.7H61.1z"/>
<path class="st0" d="M228.6,63.6c-3.3,0.4-3.9,2.8-3.1,7c0.1,0.3,0.1,0.7,0.2,1c-0.1-0.3-0.1-0.6-0.2-1c-0.6-3.3-0.4-5.4,1.3-6.4
	c-0.4,3.9,0.5,9,2.6,9.6c1.3,0.3,2.8,0.1,3.9-0.7c0.2-1.1,0.3-2.3,0.1-3.4C233,65.6,230.9,63.3,228.6,63.6"/>
<path class="st0" d="M221.4,64.4c-3.3,0.4-3.9,2.8-3.1,7c0.1,0.3,0.1,0.7,0.2,1c-0.1-0.3-0.1-0.6-0.2-0.9c-0.6-3.3-0.4-5.5,1.3-6.5
	c-0.4,3.9,0.5,9,2.6,9.6c1.3,0.3,2.8,0.1,3.9-0.7c0.2-1.1,0.3-2.3,0.1-3.4C225.7,66.4,223.7,64.1,221.4,64.4"/>
<path class="st0" d="M236.8,56c0.3-0.1,0.6-0.2,0.7-0.4C238,54.4,237.2,55.5,236.8,56z"/>
<path class="st0" d="M236.6,56.2l0.2-0.2l-0.2,0.1C236.6,56.1,236.6,56.1,236.6,56.2z"/>
<path class="st0" d="M225.3,66.6c0.1-0.3,0.1-0.6,0.2-0.9C225.5,65.9,225.4,66.3,225.3,66.6z"/>
<path class="st0" d="M233.5,57.4c-0.8,4.3-0.4,12.2-0.4,12.2c-0.1-0.3-0.1-0.6-0.9-3.3c-0.5-2.9-3.5-3.2-5.4-2
	c-0.4,3.9,0.5,8.9,2.6,9.4c1.4,0.4,2.8,0.1,3.9-0.8c-0.5,2.2-1.7,3.8-3.5,4.1c-2.6,0.3-3.5-2-4.3-6.4c-0.2-1.2-0.3-2.4-0.3-3.6
	c-0.4-0.6-0.8-1.2-1.3-1.8c-1.3-1.1-3.1-1.1-4.4-0.2c-0.4,3.9,0.5,9,2.6,9.5c1.4,0.4,2.8,0.1,3.9-0.8c-0.5,2.2-1.7,3.8-3.5,4.1
	c-2.6,0.3-3.5-2-4.4-6.4c-0.4-1.5-0.4-3.1-0.1-4.6c-0.7,1.7-0.9,3.6-0.6,5.4c0.5,12.8,6.3,11.9,6.6,14.6l0.2,17.1h9.2l-0.1-17.4
	c-0.1-2.2,5.5-6,5.5-11.8c0-4.8,0.3-9.6,0.9-14.3C240.7,54,234.4,53,233.5,57.4z M235.1,57.7c-0.6,3-1,7.9-1.5,15
	c0-0.2-0.1-3.9-0.2-5c0,0-0.4-10.8,1.3-12c1.4-0.9,1.8,0,1.9,0.4C235.8,56.3,235.2,56.9,235.1,57.7z"/>
<path class="st0" d="M237.3,49.1c0.8,1.6,4.6,7.5-0.3,7.1c-5.4-0.3-0.8-6.3,0.2-7.7L237.3,49.1z"/>
<path class="st0" d="M166.6,72.4c-0.3-1.8-0.1-3.7,0.6-5.4c-0.3,1.5-0.3,3.1,0.1,4.6c0.8,4.4,1.7,6.7,4.3,6.4
	c1.8-0.2,3.1-1.8,3.5-4.1c-1.1,0.8-2.6,1.1-3.9,0.8c-2.1-0.5-3-5.5-2.7-9.4c1.3-0.9,3.3-1.3,4.4,0.2c1.5,1.9,2.3,4.3,2.3,6.7
	c0,0-0.6-4-1.2-11.1c-0.3-3.6,0.4-5.4,1.2-6.2c1.7-0.3,3.3-0.6,3.7,1.5c0.1,0.9,3.5,16,3.8,16.1c1.4-3.6,2.4-7.2,3.1-11
	c0.8-4.1,1.9-5.7,2.7-6.3c-0.3,0-0.6,0-0.9,0c2.1-0.4,4.8,1.6,4.3,6c-0.8,6.6-2.5,14-2.5,14c-1.2,4.8-5,8.7-4.9,10.9l1.5,18h-12.7
	l-0.2-17.1C172.8,84.3,167.1,85.1,166.6,72.4"/>
<path class="st0" d="M176.8,49.2c0.8,1.6,4.6,7.5-0.4,7.1c-5.4-0.3-0.8-6.3,0.3-7.7L176.8,49.2z"/>
<path class="st0" d="M190.2,51.2c0.7,1.6,4.4,7.6-0.6,7.1c-5.4-0.4-0.6-6.4,0.5-7.7L190.2,51.2z"/>
<path class="st0" d="M295.6,55.2c-0.1-1.9-3.7-2.5-4.2,0.3c-0.4,2.3-1,5.4-1.2,6.6c-0.3-0.5-0.9-0.8-1.5-0.9
	c-1.7-0.1-2.5,0.8-2.7,2.8l0,0l-0.4,0.1c-0.1-1.7-0.6-2.8-1.8-3c-1-0.2-2.1,0.2-2.7,1.1c0-2.9-0.1-6.9-0.3-8.3c-0.3-2.3-1-3-2.1-3.1
	s-2.5,1-2.6,3.3c-0.2,3,0,14.5-2.2,15.8c-2.3,1.3-3.5-2-5.1-3.9s-3.2-2.4-4.2-1.7l0,0l0,0l0,0l0,0l0,0v0.1l0,0l0,0l0,0v0l0,0l0,0
	v0.1v0v0.1c0,0,0,0,0,0.1v0.1v0.1c0,0,0,0,0,0.1V65c0,0,0,2.3,0,0.1c0,0,0,0,0,0.1v0.1c0,0,0,0,0,0.1s0,0,0,0.1s0,0,0,0.1v0.1
	c0,0,0,0.1,0,0.1v0.2c0,0,0,0.1,0,0.1v0.1c0,0,0,0.1,0,0.1c0,0,0,0.1,0,0.1c0,0,0,0.1,0,0.1s0,0.1,0,0.1c0,0,0,0.1,0,0.1v0.1
	c0,0,0,0.1,0,0.1l0,0v0.1l0,0V67c0,0,0,0.1,0,0.1v0.1c0,0,0,0.1,0,0.1l0,0l0,0.1c0,0,0,0.1,0,0.1c0,0,0,0.1,0,0.1l0,0l0.1,0.1l0,0
	l0.1,0.1L265,68l0.1,0.1c0,0,0,0.1,0.1,0.1l0,0c0,0,0,0.1,0.1,0.1l0.1,0.1l0,0l0.1,0.1l0,0c0,0,0,0.1,0.1,0.1l0,0l0.1,0.1l0.1,0.2
	l0,0l0.1,0.1l0,0c0,0,0.1,0.1,0.1,0.2l0,0l0.1,0.2l0,0l0.1,0.2l0,0l0.1,0.2l0,0l0.1,0.2l0,0l0.1,0.2l0,0l0.1,0.1l0,0
	c0,0,0.1,0.1,0.1,0.1l0,0l0.1,0.1l0,0c0,0,0.1,0.1,0.1,0.1l0,0c0,0,0.1,0.1,0.1,0.1l0,0l0.1,0.1l0,0l0.1,0.1v0.1l0.1,0.1l0,0
	c0,0.1,0.1,0.1,0.1,0.2v0.1l0.1,0.1v0.1l0,0l0.1,0.1l0.1,0.1l0,0.1l0,0.1l0,0l0.1,0.1l0.1,0.1l0,0l0,0.1l0,0l0.1,0.1
	c0.2,0.3,0.3,0.6,0.5,0.8l0,0l0.1,0.2l0,0c0.3,0.4,0.5,0.8,0.8,1.3l0,0l0.3,0.4l0,0l0.1,0.2l0,0l0.1,0.2l0,0l0.1,0.2l0,0l0.1,0.2v0
	l0.1,0.2l0,0l0.1,0.2l0,0l0.1,0.2l0,0l0.1,0.2l0,0l0.1,0.2l0.1,0.1l0.1,0.1l0,0l0.1,0.2l0,0l0.1,0.2l0,0l0.1,0.2v0.1l0.1,0.2l0,0
	l0.2,0.2l0,0.1h0l0,0l0.1,0.1l0,0l0.2,0.2l0,0l0.2,0.2l0,0l0.2,0.2l0,0l0.2,0.2l0,0l0.2,0.2l0,0l0.2,0.1l0,0l0.2,0.2l0,0
	c3.9,4.5,4.6,15.2,4.2,24.7h10.5c-0.3-10.3,0.2-21.1,3.8-25.1c0,0,0.1,0,0.1-0.1l0,0l0.1-0.1l0.1-0.1l0,0l0.1-0.1l0,0
	c1.2-1.4,1.9-3.1,2.1-4.9C295.2,67.5,295.6,61.4,295.6,55.2z M277,69.3c-0.9,2-3.6,3-5,1.3c-0.1-0.2-0.2-0.3-0.2-0.5
	c0.6,0.8,1.7,1,2.5,0.4c2.3-1.3,2.1-12.8,2.2-15.8c-0.1-1.3,0.7-2.6,1.9-3.2l0.3,0c0,0-0.8,0.7-0.7,5S277.9,67.3,277,69.3z
	 M284.2,76.7c-0.2,0.1-0.4-0.1-0.5-0.3c-0.5-2.3-2.4-4.2-4.8-4.6c-0.2,0-0.4-0.2-0.4-0.5c0-0.2,0.2-0.4,0.4-0.4c0,0,0,0,0,0
	c2.7,0.5,4.8,2.6,5.4,5.2C284.5,76.4,284.4,76.7,284.2,76.7z M282.6,71.1c-1.7-0.3-2.2-1.8-2.2-4.9c0-2.4,0.7-4,2-4.5
	c-0.6,1.8-1.2,5.5,0.2,7c0.9,1,1.7,1.1,2.1,0.9C284.3,70.6,283.5,71.3,282.6,71.1z M287.9,71.2c-1.7-0.2-2-1.9-1.9-5.2
	c0-2.4,0.5-3.9,1.7-4.4c-0.8,2.7-0.9,6.5,0.5,7.1c0.8,0.4,1.8,0.4,2.6,0C290.1,70.3,289.1,71.3,287.9,71.2z M292.5,58.6
	c-0.3,2.1-1.2,6.9-1.2,6.9c-0.1-1.2-0.5-2.3-1-3.3c0.2-1.2,0.8-4.4,1.2-6.7c0.1-1.1,0.9-1.9,2-1.9C292.9,55.3,292.6,56.9,292.5,58.6
	L292.5,58.6z"/>
</svg>
